<svg id="Capa_1" data-name="Capa 1" xmlns="http://www.w3.org/2000/svg" viewBox="0 0 1304.33 230.06"><defs><style>.cls-1,.cls-2,.cls-3{fill:none;stroke-miterlimit:10;}.cls-1{stroke:#ed1e79;}.cls-2{stroke:#662d91;}.cls-3{stroke:#ff7bac;}</style></defs><title>graphic</title><path class="cls-1" d="M34.21.83l1,60.66c.12,7.26.52,15.27,5.51,20.55,7.64,8.08,22.33,4.5,28.9-4.48s7-21,6-32.09c-.27-3-.67-6.2-2.28-8.81-4.82-7.83-18.52-5-22.16,3.39s.94,18.63,8.18,24.3,16.52,7.87,25.49,9.89c4,.89,8.28,1.76,12.07.24,7.75-3.09,8.51-14.9,3-21.12s-14.67-7.81-23-7.5S60.15,48,51.87,47C72.19,72.43,107.43,85,139.29,78.17c2.91-.62,5.89-1.45,8.15-3.38,6.19-5.28,3.4-16.22-3.27-20.89S128.8,49,120.66,49c-4.85,0-11.26,1.31-11.63,6.15a301.25,301.25,0,0,0,99.44,20.46c11.26.37,23.12-.05,32.84-5.74S257.6,51.61,253,41.32c-2.94-6.57-9.51-10.69-15.94-13.92a146.17,146.17,0,0,0-74.12-15.2c-12.9.79-27.16,4.25-34.08,15.16-7.56,11.92-2.72,28.79,8,38s25.58,12,39.69,11.73a110.26,110.26,0,0,0,39.9-8.4c8.24-3.43,16.73-8.66,19.38-17.18C240.43,36.6,225,23.44,210.88,16.65A231.61,231.61,0,0,0,86.32-4.91c-4.91.53-10.11,1.35-13.81,4.62-3.21,2.83-4.76,7.06-6,11.15a165.46,165.46,0,0,0-7.42,47.48c-.05,6.53.57,13.76,5.29,18.29,4,3.84,9.93,4.71,15.44,5.39l49.38,6.09c9,1.11,18.3,2.2,27-.39s16.64-9.91,17-19c.21-5.19-2-10.17-4.7-14.64a78.11,78.11,0,0,0-62.51-37.44A78.1,78.1,0,0,0,40.35,48.42C30.86,61.57,25.8,77.36,21.7,93.06c-3,11.54-5.22,25,2,34.44,4.68,6.1,12.42,9.1,20,10.24,19.93,3,40.73-5.49,54.47-20.23s20.66-35.11,20.91-55.25c.23-17.89-5.67-37.32-20.69-47C84.3,6.09,66,7.72,49.31,9.67c-9.38,1.1-20,2.89-25.22,10.73-2.79,4.14-3.54,9.27-4.23,14.22l-4.5,32.61c-.41,2.94-.76,6.15.76,8.7S21,79.79,24,80.53c22.15,5.36,50.42-8.93,49.93-31.71-.33-15.34-13.6-28-28.24-32.58S15.27,13.25,0,14.91c-4,.44-8.3,1.06-10.95,4C-13,21.26-13.57,24.52-14,27.6a214.76,214.76,0,0,0-.1,56.52c.87,6.63,2.33,13.76,7.35,18.18C-2.52,106,3.36,107.07,9,107.64c57.32,5.74,114.49-26.33,147.49-73.54,12.11-17.34,20.5-43.31,5.09-57.8-11.9-11.18-32.52-7.7-44.16,3.76s-16,28.35-17.8,44.59C97.85,40.47,98.84,58.28,110,69.59c6.84,6.91,16.45,10.25,25.88,12.57A172.83,172.83,0,0,0,263.23,63.51c7-4.1,13.91-8.95,17.93-16,9-15.74-1.45-37.82-18.46-44.13s-37,1-49.2,14.41S195.78,49.55,194,67.59c-.61,6-.59,12.83,3.59,17.21s10.89,4.69,16.89,4.35A135,135,0,0,0,256.3,80c13.48-5.32,27.52-14.89,29.15-29.29,1.48-13-8.33-25.18-20.19-30.71s-25.39-5.92-38.47-6.2c-14.78-.31-32,.51-40.67,12.47-5,6.92-5.8,16-6.4,24.47L177.37,84c-1.7,24.1-1.53,52.56,17.88,67,12,8.91,28.42,9.51,43.13,6.66,49.35-9.56,88.35-57.23,88.29-107.5,0-15.27-4-31.75-15.81-41.41S282.38-1.54,267.42,1c-2.23.37-4.56.86-6.28,2.33-2.16,1.85-2.9,4.84-3.33,7.65A63.15,63.15,0,0,0,281,69a63.14,63.14,0,0,0,61.9,8.29c3.87-1.62,7.73-3.77,10.08-7.24s2.87-7.58,3.06-11.64c.63-14.11-3.5-28.94-13.57-38.86S315.8,5.87,303.5,12.83C293.32,18.6,287.71,30.36,286.41,42s1.08,23.31,3.44,34.77a137.55,137.55,0,0,0,58-12.83c7.45-3.47,15-8.09,18.42-15.59C371.29,37.13,365,24,356.9,14.77a85.61,85.61,0,0,0-55.75-28.26c-7.12-.64-14.7-.28-20.8,3.46-5.49,3.36-9.1,9-12.25,14.62A201.68,201.68,0,0,0,245,70.16c-1.11,6.63-1.87,13.47-.44,20,3.16,14.47,17.16,25.1,31.87,26.77s29.57-4.5,40.79-14.17c16-13.75,25.47-36.5,18.93-56.52s-32.12-33-50.4-22.52c-14.2,19-.55,48.6,21.19,58s47,3.89,69-4.72c7.89-3.09,16.47-7.43,19-15.5,1.94-6.11-.17-12.73-2.65-18.64-8.66-20.61-24.93-40.77-47.17-43-4.46-.45-9.34,0-12.78,2.86s-4.63,7.24-5.68,11.45a337.21,337.21,0,0,0-9.95,71.46c-.21,6.75-.15,13.8,2.91,19.81,3.77,7.4,11.61,12,19.68,14,20.3,4.83,42-5.85,55-22.13s18.83-37.19,22-57.8c1.88-12.15,2.88-25.09-2.22-36.27S396-16.34,384.43-12.15c-16.39,5.94-16.71,28.7-14,45.92.88,5.55,1.79,11.23,4.47,16.17,5.25,9.66,16.6,14.82,27.58,15.21s21.7-3.27,31.79-7.61c4.54-2,9.42-4.47,11.19-9.08,2.44-6.3-2.09-13-6.76-17.92C413.05,3.71,374.16-9.8,337.41-4.66c-7.16,1-14.53,2.81-20,7.49-11,9.35-10.76,26.31-7.69,40.4C315.31,69,328.47,94.39,351,108s55.44,11.52,71.63-9.24c7.47-9.58,10.72-21.79,12.47-33.81,2.84-19.49,2.14-39.7-4-58.41" transform="translate(16.4 70.46)"/><path class="cls-2" d="M485.56,12.91c-12.62-6.59-27.73,7.8-28.16,22-.61,20.71,21.88,38.65,41.94,33.44s31-31.83,20.36-49.63C507.64-1.45,478.25-3.29,456.23,5a18.19,18.19,0,0,0-6.37,3.54c-2.5,2.39-3.58,5.88-4.5,9.22a292.25,292.25,0,0,0-7.76,37.87c-.94,6.85-1.58,14.11,1.17,20.46C442.19,84,450.13,88.86,458,92.36c17.29,7.73,37.17,11.19,55.33,5.79s33.88-20.92,36-39.74c.56-5,.08-10.37-2.9-14.41-3.4-4.6-9.28-6.52-14.84-7.85A152.33,152.33,0,0,0,486,32.25c-2.8.18-5.82.54-7.89,2.44-3.19,2.92-2.7,8.07-1.32,12.17,6.8,20.12,27.76,32,48.3,37.43a143.42,143.42,0,0,0,86.71-4.6c7.92-3,15.73-6.83,21.7-12.83,15.33-15.39,14.69-40.21,11.23-61.64-1.65-10.15-3.78-20.48-9.13-29.26-14.08-23.11-48.15-28.24-72-15.36s-37.76,39.32-42.37,66c-2.06,11.94-1.67,26.17,7.86,33.66,4.38,3.44,10,4.81,15.38,6.1,14.2,3.37,29.31,6.72,43.13,2s24.83-20.78,18.66-34c-7.72-16.54-32-14.32-48.74-6.95-4.1,1.81-8.68,4.51-9.13,9-.39,3.81,2.49,7.11,5.34,9.67,26.86,24.1,66.47,27.68,102.31,23.44,16.95-2,34.74-6,46.94-17.93S718.68,17.5,706.08,6c-6.87-6.28-16.62-8.07-25.82-9.51-18.56-2.91-37.54-5.48-56-2.25S587.45,7.38,578.67,24c-8.3,15.67-7.08,34.46-5.64,52.13.55,6.82,1.34,14.19,6,19.21,4.36,4.71,11.09,6.22,17.39,7.42,14.94,2.85,30.51,5.31,45.2,1.4s28.32-15.92,29.29-31.1-11.15-29-25.31-34.81-30-5.59-45.31-5.24a14.29,14.29,0,0,0-5.41.82c-6.71,2.89-5.16,13-1.05,19.1,12.4,18.28,35.6,25.63,57.39,29.3a299.33,299.33,0,0,0,64,3.83c8.87-.42,19.58-2.61,22.43-11,2.28-6.73-1.9-13.82-6.24-19.45a171,171,0,0,0-33.74-33c-7.61-5.61-21.48-8.63-23.88.51-.67,2.56,0,5.26.84,7.78,11.61,36.38,47.76,63.47,85.93,64.4,7.95.2,16.16-.71,23.13-4.52,13.44-7.33,19.23-23.35,23.1-38.17,4.59-17.54,8-36.28,2.66-53.61s-22.07-32.38-40-30c-5.57.74-11.11,3.27-14.43,7.79-2.09,2.83-3.19,6.25-4.2,9.61a292.64,292.64,0,0,0-12.25,89.28c.08,4.16.38,8.66,3.07,11.83,2.34,2.75,6,3.9,9.55,4.69a80.06,80.06,0,0,0,36.11-.3c6.2-1.5,13.26-5,13.73-11.38.45-6.09-5.44-10.56-10.78-13.51A194.62,194.62,0,0,0,683.91,43.2c24.75,31.32,70,44.57,107.77,31.55,4.47-1.54,9.12-3.64,11.61-7.67,4.21-6.81.53-15.59-3.24-22.66C789.71,25,778.63,5.51,762.53-9.48s-38.17-25-59.94-21.85a316.42,316.42,0,0,0,8.61,98c2.91,11.65,7.35,24.27,17.87,30.06,7.5.43,11.23-10.39,7.29-16.78s-11.82-9-19.09-10.82A369.37,369.37,0,0,0,604.4,58.15c-17.65,1-36.9,4.16-48.56,17.45l8.06,7.85,16.27-5.62a347.91,347.91,0,0,0-99.37,4.69l-6.17-15.06A167.19,167.19,0,0,1,505,47.69" transform="translate(16.4 70.46)"/><path class="cls-3" d="M842.45,2.52l-1.84,41.59c-.15,3.52-.27,7.23,1.36,10.36,2.12,4.06,6.64,6.16,10.85,8,11.91,5.16,24.24,10.4,37.22,10.4S916.92,66.19,921.31,54c4.56-12.65-2.64-27.19-13.58-35S883,8.67,869.66,7.11c-7.83-.91-16.1-1.52-23.31,1.69C840,11.61,835.28,17,831.24,22.65A117.62,117.62,0,0,0,809.6,82.11c-.5,6.65-.27,13.84,3.66,19.23,3.38,4.64,8.92,7.12,14.31,9.08,42.59,15.5,92.37,9.69,130.24-15.21,11.62-7.64,23.27-20.86,18.31-33.85-2.52-6.6-8.76-11-14.91-14.44a141,141,0,0,0-81.85-17.51c-4,.37-8,.95-11.48,3C858.31,38,858,52.76,864.66,61.59S882.56,74.45,893.35,77a168.88,168.88,0,0,0,108.72-11.53c8.74-4.1,17.39-9.19,23-17s7.54-19,2.41-27.17c-4.39-7-12.69-10.35-20.61-12.66-19.49-5.69-40.58-7.61-60-1.83s-37,20.11-43.3,39.41.69,43.06,18.23,53.28c7.79,4.54,16.88,6.25,25.83,7.41,37.72,4.87,76.94,1,111.83-14.16s65.19-41.86,81.86-76c5-10.3,8.59-23.32,1.91-32.64-3-4.18-7.61-6.87-12.29-9-21.62-9.81-48.06-9.34-68.45,2.84s-33.53,36.29-31,59.9c.9,8.37,4.11,17.15,11.19,21.7,4.14,2.65,9.13,3.58,14,4.19a138.15,138.15,0,0,0,34.6-.06c9.27-1.19,20.71-6.15,20-15.47-.29-4-2.94-7.42-6-10-9.5-8-24.4-9.46-34.67-2.44s-14.24,22.31-7.79,33c3.26,5.37,8.55,9.17,14,12.26,27.46,15.49,63.09,15.31,90.39-.45s45.27-46.54,45.58-78.07c.07-6.92-1.23-14.84-7.08-18.54-3.88-2.45-8.82-2.36-13.38-1.84-44.21,5-81,47.05-80.15,91.54.08,3.68.42,7.51,2.29,10.69,3,5,9,7.3,14.7,8.63a90.59,90.59,0,0,0,72.41-14.52,90.57,90.57,0,0,0,36.73-64.08c.83-8.88-.1-18.86-6.62-24.94-8.12-7.57-22.26-5.34-29.88,2.73s-9.61,20.15-8.21,31.17C1197.84,56,1232.41,81.55,1265,76c4.65-.79,9.51-2.32,12.48-6,4.37-5.39,3.17-13.34.83-19.87-6.2-17.3-23.91-33.68-41.22-27.51-14.52,5.18-19.81,22.59-23.07,37.66-5.83,27.05-9.6,60.07,11.52,78a545.1,545.1,0,0,0,47.63-71.06c12.22-21.73,22.18-51.15,5.37-69.57-7.28-8-18-11.67-28.4-14.68-26-7.57-58.44-11-76,9.53-12,14-12.32,35.09-6.23,52.52a87,87,0,0,0,48.88,51.24c13.59,5.48,32.54,5.56,39.3-7.46,2.26-4.35,2.66-9.42,2.63-14.33A96.11,96.11,0,0,0,1245.15,26c-4.34-7.26-10.07-14.26-18-17.19-9.74-3.59-20.9-.22-29.36,5.8-10.74,7.63-18.56,20.34-17.5,33.46s12.85,25.35,26,24.28c5.11-.41,10.43-3.15,12.14-8,2.39-6.71-3-13.6-8.53-18.05-24-19.22-59.93-22-86.63-6.74-5.92,3.38-12,8.76-11.5,15.56.7,9.83,15.3,13,23.07,6.94s10-16.68,11.45-26.43c1.56-10.78,2.71-21.95-.31-32.42-6.41-22.29-31-35.72-54.18-35.5s-44.92,11.36-64,24.53C1004.62,8.22,983,28.8,974.4,55.53c-3,9.18-4.29,19.18-1.64,28.45,5,17.49,24.33,28.76,42.42,26.92s33.87-15.11,41.37-31.68,7.44-35.87,2.62-53.4c-1.37-5-3.18-10-6.65-13.77-9.68-10.62-26.82-7.51-40.64-3.56-11.12,3.18-24,8.19-26.59,19.46-1.08,4.78.06,9.81,1.93,14.34a46.51,46.51,0,0,0,37.86,27.9c6.52-5.17,6-15.9.86-22.47s-13.33-9.82-21.31-12.15c-30.27-8.83-64.59-7.95-91.44,8.56S869.5,94.79,878.62,125a113.33,113.33,0,0,0,59.84-35.71c4.93-5.65,9.47-12.29,9.76-19.78.52-13.52-12.71-23.56-25.56-27.83A83.74,83.74,0,0,0,875.89,40C867,42.25,857,48,857,57.23c0,11.47,14.79,16.48,26.22,15.57C919.18,70,950.9,39,954.6,3.06c.57-5.51.52-11.23-1.55-16.37C949-23.45,937.72-29.16,926.84-30.12c-18.2-1.6-36.07,7.81-48.44,21.25s-20,30.53-26.2,47.7a402,402,0,0,0-18.93,72.89c11.88-1.81,24.3-3.84,34-11s15.31-21.25,9.19-31.6c-2.5-4.23-6.57-7.29-10.75-9.88a90,90,0,0,0-82.4-5.63c16.25,17.78,36.79,32.39,60.22,38s49.89,1.22,68-14.69,25.62-44,14.75-65.52C913.38-14,881.87-22.83,853.66-26.13c-6.31-.74-12.79-1.33-18.95.25-19.48,5-27.28,28.15-30.35,48-1.3,8.39-2.32,17-.9,25.34,3.46,20.5,21.4,36.28,41.19,42.64s41.19,4.88,61.77,2c16.1-2.27,32.68-5.61,45.82-15.18s21.85-27,16.67-42.41-27.58-23.45-39-11.84c12.12,21,38,29,61.66,34.44,29.62,6.84,66,10.46,85.44-12.9,9.47-11.38,12.39-26.7,14.54-41.35,1.81-12.37.7-28.95-11.39-32.11-8.68-2.27-17.61,5.47-19.25,14.29s2.27,17.79,7.53,25a69.51,69.51,0,0,0,57.64,28.17,69.52,69.52,0,0,0,55.56-32.08c12.91-20.69,11.85-51.74-8-65.89-5-3.58-11.43-5.93-17.39-4.29-5.15,1.42-9.12,5.58-12,10.08-11.38,17.82-6.9,44.77,11.08,55.89s46,.85,50.39-19.83c3-14.35-4.63-29-14.65-39.69-5.64-6-12.62-11.52-20.83-12.31-19.18-1.84-30.42,20.84-34.77,39.61-5.75,24.85-8,54.72,10.64,72.14,15.46,14.46,39.71,14.32,60.11,8.66,27-7.49,52.74-24.36,64.59-49.8,5.4-11.57,7.56-25.66,1.48-36.89s-22.48-16.93-32.34-8.81c-3.51,2.89-5.75,7-7.82,11C1224.57-19,1218-2.68,1219.85,13.93s14.54,33.06,31.24,33.76c10,.43,19.34-4.6,28.09-9.49-7.19-7.6-21.19-4-26.81,4.83s-4.63,20.4-1.32,30.33,8.7,19.11,11.59,29.17" transform="translate(16.4 70.46)"/></svg>